<svg xmlns="http://www.w3.org/2000/svg" data-name="Layer 1" viewBox="0 0 64 64"><path fill="#2e58a6" d="M58.38,44.66C54.16,43,50.28,40.8,46.06,39.1c-2.74-1.1-3.22,1.69-.93,2.61s4.56,2,6.79,3.08a37.89,37.89,0,0,1-16.79-.33C31.47,43.53,27.58,42,25,39.65a9.11,9.11,0,0,1-2.47-4.55c3.22.63,6.73.64,9.23-.84,3.44-2,2.26-5.64-1-7.37a8.94,8.94,0,0,0-11.1,2.5,6.87,6.87,0,0,0-.84,1.67,17.26,17.26,0,0,1-5.59-3.42C8.41,23.24,7.54,17,7.92,11.4,8,9.85,4.21,7.84,4.07,9.84c-.63,9.22,2.66,19.22,13.54,23.8l.85.33a11.5,11.5,0,0,0,3.69,6.9c6.69,6.4,17.88,8.7,28,7.68L44.71,52c-1.87,1.19,1.41,3.78,3,2.76l11.7-7.42C60.74,46.52,59.53,45.12,58.38,44.66ZM25.57,29.85q2.06-1.5,2.38,1.88l-1.87.38A14.67,14.67,0,0,1,22.66,32,3.69,3.69,0,0,1,25.57,29.85Z"/></svg>