<svg version="1.1" xmlns="http://www.w3.org/2000/svg" width="300" height="1800">
<rect fill="#000" width="300" height="1800" />
<g>
	<rect fill="#fff" x="10" y="10" width="280" height="280" rx="30" ry="30" />
	<circle cx="150" cy="150" r="30"/>
</g>

<g>
	<rect fill="#fff" x="10" y="310" class="st0" width="280" height="280" rx="30" ry="30" />
	<circle cx="75" cy="535" r="30"/>
	<circle cx="225" cy="365" r="30"/>
</g>

<g>
	<rect fill="#fff" x="10" y="610" class="st0" width="280" height="280" rx="30" ry="30" />
	<circle cx="75" cy="835" r="30"/>
	<circle cx="225" cy="665" r="30"/>
	<circle cx="150" cy="750" r="30"/>
</g>

<g>
	<rect fill="#fff" x="10" y="910" class="st0" width="280" height="280" rx="30" ry="30" />
	<circle cx="75" cy="965" r="30"/>
	<circle cx="75" cy="1135" r="30"/>
	<circle cx="225" cy="965" r="30"/>
	<circle cx="225" cy="1135" r="30"/>
</g>

<g>
	<rect fill="#fff" x="10" y="1210" class="st0" width="280" height="280" rx="30" ry="30" />
	<circle cx="75" cy="1265" r="30"/>
	<circle cx="75" cy="1435" r="30"/>
	<circle cx="225" cy="1265" r="30"/>
	<circle cx="150" cy="1350" r="30"/>
	<circle cx="225" cy="1435" r="30"/>
</g>

<g>
	<rect fill="#fff" x="10" y="1510" class="st0" width="280" height="280" rx="30" ry="30" />
	<circle cx="75" cy="1565" r="30"/>
	<circle cx="75" cy="1735" r="30"/>
	<circle cx="225" cy="1565" r="30"/>
	<circle cx="75" cy="1650" r="30"/>
	<circle cx="225" cy="1650" r="30"/>
	<circle cx="225" cy="1735" r="30"/>
</g>

</svg>